<svg xmlns="http://www.w3.org/2000/svg" viewBox="0 0 128 128">
  <defs>
    <linearGradient id="g" x1="0" y1="0" x2="1" y2="1">
      <stop offset="0" stop-color="#6b77ff"/>
      <stop offset="1" stop-color="#5865f2"/>
    </linearGradient>
  </defs>
  <rect x="0" y="0" width="128" height="128" rx="28" fill="url(#g)"/>
  <path d="M37 86c-9 0-16-7-16-16V52c0-20 18-36 43-36h14c25 0 43 16 43 36v14c0 11-9 20-20 20H87c-3 0-5 2-5 5v11c0 4-3 7-7 7h-5c-4 0-7-3-7-7v-6c0-3-2-5-5-5H48c-3 0-5 2-5 5v6c0 4-3 7-7 7h-5c-4 0-7-3-7-7Z" fill="#0f1022" fill-opacity="0.18"/>
  <path d="M37 86c-9 0-16-7-16-16V52c0-20 18-36 43-36h14c25 0 43 16 43 36v14c0 11-9 20-20 20H87c-3 0-5 2-5 5v11c0 4-3 7-7 7h-5c-4 0-7-3-7-7v-6c0-3-2-5-5-5H48c-3 0-5 2-5 5v6c0 4-3 7-7 7h-5c-4 0-7-3-7-7Z" fill="none" stroke="#fff" stroke-width="7" stroke-linejoin="round"/>
  <path d="M89 58c4 0 8 4 8 9s-4 9-8 9h-9" fill="none" stroke="#fff" stroke-width="7" stroke-linecap="round"/>
  <circle cx="52" cy="56" r="5" fill="#fff"/>
  <circle cx="76" cy="56" r="5" fill="#fff"/>
  <!-- moderation badge: white disc + red wrench -->
  <circle cx="94" cy="94" r="34" fill="#fff"/>
  <circle cx="94" cy="94" r="34" fill="#000" fill-opacity="0.06"/>
  <g transform="translate(94 94) scale(1.45)">
    <path
      fill="none"
      stroke="#da373c"
      stroke-width="2.6"
      stroke-linecap="round"
      stroke-linejoin="round"
      transform="translate(-12 -12)"
      d="M14.7 6.3a1 1 0 0 0 0 1.4l1.6 1.6a1 1 0 0 0 1.4 0l3.77-3.77a6 6 0 0 1-7.94 7.94l-6.91 6.91a2.12 2.12 0 0 1-3-3l6.91-6.91a6 6 0 0 1 7.94-7.94l-3.76 3.76z"
    />
  </g>
</svg>
